<?xml version="1.0" encoding="UTF-8"?>
<svg version="1.1" xmlns="http://www.w3.org/2000/svg" width="216" height="62">
<path d="M0 0 C71.28 0 142.56 0 216 0 C216 20.46 216 40.92 216 62 C144.72 62 73.44 62 0 62 C0 41.54 0 21.08 0 0 Z " fill="#FDFEFE" transform="translate(0,0)"/>
<path d="M0 0 C1.65 0 3.3 0 5 0 C5 7.59 5 15.18 5 23 C0.14060041 23 -4.22127289 22.93867854 -9 22 C-11.48038907 18.2794164 -11.46337203 16.40203429 -11 12 C-9.3125 9.5625 -9.3125 9.5625 -7 8 C-4.3125 7.6875 -4.3125 7.6875 -2 8 C-1.67 8.33 -1.34 8.66 -1 9 C-0.67 6.03 -0.34 3.06 0 0 Z " fill="#4E4DE0" transform="translate(152,21)"/>
<path d="M0 0 C1.65 0 3.3 0 5 0 C5.33 2.97 5.66 5.94 6 9 C6.33 8.67 6.66 8.34 7 8 C10.4375 8.25 10.4375 8.25 14 9 C16.34168764 12.51253146 16.49623677 13.86469356 16 18 C14.75 20.875 14.75 20.875 12 23 C7.90667871 23.43001647 4.13634224 23.22480121 0 23 C0 15.41 0 7.82 0 0 Z " fill="#1E1E2C" transform="translate(54,21)"/>
<path d="M0 0 C1.65 0 3.3 0 5 0 C5 2.64 5 5.28 5 8 C7.97 8 10.94 8 14 8 C14 5.36 14 2.72 14 0 C15.65 0 17.3 0 19 0 C19 6.93 19 13.86 19 21 C17.35 21 15.7 21 14 21 C14 18.03 14 15.06 14 12 C11.03 12 8.06 12 5 12 C5 14.97 5 17.94 5 21 C3.35 21 1.7 21 0 21 C0 14.07 0 7.14 0 0 Z " fill="#4F4BDF" transform="translate(73,23)"/>
<path d="M0 0 C2.4375 1.5625 2.4375 1.5625 4 4 C4.5625 7.5 4.5625 7.5 4 11 C1.4511805 13.9236459 -0.19515606 14.84909176 -4 15.5625 C-8.10389613 14.79301948 -9.53959272 13.32878632 -12 10 C-12.625 6.9375 -12.625 6.9375 -12 4 C-8.4115984 -0.13209881 -5.34179574 -0.77698847 0 0 Z " fill="#4F49DE" transform="translate(107,29)"/>
<path d="M0 0 C2.875 1.5625 2.875 1.5625 5 4 C5.625 7.5 5.625 7.5 5 11 C2.44296344 13.93307135 0.83417929 14.86097012 -3 15.5 C-6.83417929 14.86097012 -8.44296344 13.93307135 -11 11 C-11.625 7.5 -11.625 7.5 -11 4 C-7.6828559 0.19504059 -4.97314546 -0.82885758 0 0 Z " fill="#141528" transform="translate(46,29)"/>
<path d="M0 0 C0.99 0.66 1.98 1.32 3 2 C3.29296875 5.0390625 3.29296875 5.0390625 3.1875 8.625 C3.16042969 9.81351563 3.13335937 11.00203125 3.10546875 12.2265625 C3.07066406 13.14179687 3.03585938 14.05703125 3 15 C2.195625 14.814375 1.39125 14.62875 0.5625 14.4375 C-0.283125 14.293125 -1.12875 14.14875 -2 14 C-2.33 14.33 -2.66 14.66 -3 15 C-5.4375 15.1875 -5.4375 15.1875 -8 15 C-10 13 -10 13 -10.25 10.5 C-10 8 -10 8 -8 6 C-6.01643517 5.28591666 -4.01684563 4.61382258 -2 4 C-4.31 4.33 -6.62 4.66 -9 5 C-9 3.68 -9 2.36 -9 1 C-5.98131566 -0.50934217 -3.32702771 -0.17510672 0 0 Z " fill="#4F47DE" transform="translate(123,29)"/>
<path d="M0 0 C2.375 1.6875 2.375 1.6875 4 4 C4.25 6.75 4.25 6.75 4 9 C-0.455 9.495 -0.455 9.495 -5 10 C-3.81575674 11.41577477 -3.81575674 11.41577477 -0.4375 11.0625 C1.2640625 11.0315625 1.2640625 11.0315625 3 11 C3 11.99 3 12.98 3 14 C-0.09173752 15.54586876 -2.59429552 15.29359521 -6 15 C-8.4375 13.4375 -8.4375 13.4375 -10 11 C-10.56783945 7.02512383 -10.62340519 4.93510779 -8.375 1.5625 C-5.28314769 -0.47161336 -3.63632575 -0.60605429 0 0 Z " fill="#5854E0" transform="translate(170,29)"/>
<path d="M0 0 C1.65 0 3.3 0 5 0 C5.08139142 2.39652528 5.14067009 4.79025436 5.1875 7.1875 C5.21263672 7.86103516 5.23777344 8.53457031 5.26367188 9.22851562 C5.32907182 13.69751197 4.75630065 16.45618488 2 20 C-0.70879335 21.35439668 -3.00933268 21.06501451 -6 21 C-6 19.35 -6 17.7 -6 16 C-4.35 15.67 -2.7 15.34 -1 15 C-0.67 10.05 -0.34 5.1 0 0 Z " fill="#141832" transform="translate(27,23)"/>
<path d="M0 0 C0.33 1.32 0.66 2.64 1 4 C-1.97 3.505 -1.97 3.505 -5 3 C-4.11710613 5.25929199 -4.11710613 5.25929199 -1.4375 6.3125 C1 8 1 8 1.5 10.5625 C1 13 1 13 -2 15 C-4.33199388 15.07905064 -6.66832622 15.08798769 -9 15 C-9.33 13.35 -9.66 11.7 -10 10 C-7.03 10.495 -7.03 10.495 -4 11 C-4.99 10.34 -5.98 9.68 -7 9 C-7.99 8.34 -8.98 7.68 -10 7 C-10.375 4.5 -10.375 4.5 -10 2 C-6.3558226 -0.4294516 -4.28758728 -0.16179575 0 0 Z " fill="#504ADE" transform="translate(198,29)"/>
<path d="M0 0 C3.33333333 0 6.66666667 0 10 0 C10 1.32 10 2.64 10 4 C8.68 4.33 7.36 4.66 6 5 C5.67 8.3 5.34 11.6 5 15 C3.35 15 1.7 15 0 15 C0 10.05 0 5.1 0 0 Z " fill="#5248DF" transform="translate(130,29)"/>
<path d="M0 0 C2.475 0.495 2.475 0.495 5 1 C7.23167185 0.63143136 7.23167185 0.63143136 9 0 C9 1.32 9 2.64 9 4 C8.03320312 4.35191406 8.03320312 4.35191406 7.046875 4.7109375 C4.7922092 5.81161073 4.7922092 5.81161073 4.390625 8.1640625 C4.34421875 8.97617187 4.2978125 9.78828125 4.25 10.625 C4.19328125 11.44226562 4.1365625 12.25953125 4.078125 13.1015625 C4.05234375 13.72804688 4.0265625 14.35453125 4 15 C2.68 15 1.36 15 0 15 C0 10.05 0 5.1 0 0 Z " fill="#4540DE" transform="translate(177,29)"/>
<path d="M0 0 C0.99 0.33 1.98 0.66 3 1 C3 2.32 3 3.64 3 5 C3.99 5.33 4.98 5.66 6 6 C5.67 6.99 5.34 7.98 5 9 C2.625 9.125 2.625 9.125 0 9 C-2 7 -2 7 -2.25 4.5 C-2 2 -2 2 0 0 Z " fill="#4C44DE" transform="translate(115,35)"/>
<path d="M0 0 C1.98 0 3.96 0 6 0 C6 2.31 6 4.62 6 7 C4.02 7 2.04 7 0 7 C0 4.69 0 2.38 0 0 Z " fill="#F1F4F3" transform="translate(40,33)"/>
<path d="M0 0 C1.2065625 0.0309375 1.2065625 0.0309375 2.4375 0.0625 C2.4375 2.3725 2.4375 4.6825 2.4375 7.0625 C0.77138095 7.105221 -0.89632885 7.10313832 -2.5625 7.0625 C-3.5625 6.0625 -3.5625 6.0625 -3.6875 3.5625 C-3.51717518 0.15600356 -3.41884482 0.08338646 0 0 Z " fill="#FBFAFC" transform="translate(103.5625,32.9375)"/>
<path d="M0 0 C1.67542976 0.28604898 3.34385343 0.61781233 5 1 C5.042721 2.66611905 5.04063832 4.33382885 5 6 C4 7 4 7 1.4375 7.0625 C0.2309375 7.0315625 0.2309375 7.0315625 -1 7 C-1.04254356 5.00045254 -1.04080783 2.99958364 -1 1 C-0.67 0.67 -0.34 0.34 0 0 Z " fill="#F9F7FA" transform="translate(147,33)"/>
<path d="M0 0 C1.67542976 0.28604898 3.34385343 0.61781233 5 1 C5 2.65 5 4.3 5 6 C3.34385343 6.38218767 1.67542976 6.71395102 0 7 C-1 6 -1 6 -1.125 3.5 C-1 1 -1 1 0 0 Z " fill="#F6FBF4" transform="translate(60,33)"/>
<path d="M0 0 C2 0 4 0 6 0 C6 1.32 6 2.64 6 4 C4.35 4 2.7 4 1 4 C0.67 2.68 0.34 1.36 0 0 Z " fill="#4A53E1" transform="translate(134,29)"/>
<path d="M0 0 C1.32 0 2.64 0 4 0 C3.67 1.32 3.34 2.64 3 4 C1.68 3.67 0.36 3.34 -1 3 C-0.67 2.01 -0.34 1.02 0 0 Z " fill="#E3E4F5" transform="translate(118,37)"/>
</svg>
